<svg width="24" height="24" viewBox="0 0 24 24" fill="none" xmlns="http://www.w3.org/2000/svg">
  <path d="M12 0C5.373 0 0 5.373 0 12s5.373 12 12 12 12-5.373 12-12S18.627 0 12 0z" fill="#00C4CC"/>
  <path d="M15.5 8.5c-.8 0-1.5.3-2 .9-.6.6-.9 1.4-.9 2.3 0 .9.3 1.6.9 2.2.5.5 1.2.8 2 .8.5 0 1-.1 1.4-.4.4-.3.7-.6.9-1l-1.1-.6c-.1.2-.3.4-.5.5-.2.1-.5.2-.7.2-.5 0-.8-.2-1.1-.5-.3-.3-.4-.8-.4-1.3 0-.5.2-1 .4-1.3.3-.4.7-.5 1.1-.5.5 0 .9.3 1.1.7l1.1-.6c-.2-.4-.5-.8-.9-1-.4-.3-.8-.4-1.3-.4z" fill="white"/>
</svg>