<svg width="24" height="24" viewBox="0 0 24 24" fill="none" xmlns="http://www.w3.org/2000/svg">
  <defs>
    <linearGradient id="folder-grad" x1="2" y1="4" x2="22" y2="20" gradientUnits="userSpaceOnUse">
      <stop offset="0%" stop-color="#FFC107"/>
      <stop offset="100%" stop-color="#FF9800"/>
    </linearGradient>
    <linearGradient id="folder-front" x1="2" y1="10" x2="22" y2="20" gradientUnits="userSpaceOnUse">
      <stop offset="0%" stop-color="#FFD54F"/>
      <stop offset="100%" stop-color="#FFB300"/>
    </linearGradient>
  </defs>
  <!-- Folder back -->
  <path d="M2 7C2 5.9 2.9 5 4 5h5.17a2 2 0 0 1 1.42.59L12 7h8c1.1 0 2 .9 2 2v9c0 1.1-.9 2-2 2H4c-1.1 0-2-.9-2-2V7z" fill="url(#folder-grad)"/>
  <!-- Folder front flap -->
  <path d="M2 10h20v8c0 1.1-.9 2-2 2H4c-1.1 0-2-.9-2-2v-8z" fill="url(#folder-front)"/>
  <!-- Subtle highlight -->
  <path d="M2 10h20v1H2z" fill="white" opacity="0.3"/>
</svg>
