<svg width="24" height="24" viewBox="0 0 24 24" fill="none" xmlns="http://www.w3.org/2000/svg">
  <path d="M1.636 21h3.819V11.73L1 7.607V19.364C1 20.268 1.732 21 1.636 21z" fill="#4285F4"/>
  <path d="M18.545 21h3.819c.904 0 1.636-.732 1.636-1.636V7.607l-5.455 4.123V21z" fill="#34A853"/>
  <path d="M18.545 4.636V11.73L24 7.607V5.273c0-2.022-2.31-3.177-3.927-1.963L18.545 4.636z" fill="#FBBC04"/>
  <path d="M5.455 11.73V4.636L12 9.818l6.545-5.182V11.73L12 16.91 5.455 11.73z" fill="#EA4335"/>
  <path d="M0 5.273v2.334l5.455 4.123V4.636L3.927 3.31C2.31 2.096 0 3.25 0 5.273z" fill="#C5221F"/>
</svg>