<svg width="24" height="24" viewBox="0 0 100 100" fill="none" xmlns="http://www.w3.org/2000/svg">
  <path d="M1.225 61.523a48.908 48.908 0 0 1-1.12-5.86L48.337 3.43c2.005.238 3.955.615 5.86 1.12L1.224 61.524zM4.15 70.472a50.093 50.093 0 0 1-2.32-4.46L62.29 5.55c1.56.69 3.05 1.46 4.46 2.32L4.15 70.472zM9.15 77.85a50.202 50.202 0 0 1-3.45-3.87L69.58 10.1a50.203 50.203 0 0 1 3.87 3.45L9.15 77.85zM16.32 84.3a50.2 50.2 0 0 1-4.25-3.15L74.849 18.37c1.12.98 2.17 2.04 3.15 4.25L16.32 84.3z" fill="#5E6AD2"/>
  <path d="M50 100C22.386 100 0 77.614 0 50S22.386 0 50 0s50 22.386 50 50-22.386 50-50 50zm0-10c22.091 0 40-17.909 40-40S72.091 10 50 10 10 27.909 10 50s17.909 40 40 40z" fill="#5E6AD2" fill-rule="evenodd" clip-rule="evenodd"/>
</svg>
