<svg width="24" height="24" viewBox="0 0 24 24" fill="none" xmlns="http://www.w3.org/2000/svg">
  <path d="M7.667 14.5c-.403 0-.727-.073-.973-.22v2.22h-.86V11.7c.287-.073.66-.133 1.12-.18.46-.047.84-.02 1.14.08.3.1.54.26.72.48.18.22.27.513.27.88 0 .367-.097.673-.29.92-.193.247-.457.427-.79.54-.333.113-.713.1-1.14-.04l.003.12zm-.14-2.26c-.227 0-.42.013-.58.04v1.58c.12.053.3.08.54.08.293 0 .527-.073.7-.22.173-.147.26-.36.26-.64 0-.267-.08-.467-.24-.6-.16-.133-.38-.213-.66-.24h-.02z" fill="#EC1C24"/>
  <path d="M12.667 11.54c.513 0 .947.087 1.3.26.353.173.62.433.8.78.18.347.27.78.27 1.3s-.09.953-.27 1.3c-.18.347-.447.607-.8.78-.353.173-.787.26-1.3.26h-1.82V11.54h1.82zm0 3.82c.44 0 .773-.14 1-.42.227-.28.34-.687.34-1.22s-.113-.94-.34-1.22c-.227-.28-.56-.42-1-.42h-.96v3.28h.96z" fill="#EC1C24"/>
  <path d="M17.5 11.54v.74h-2.08v1.18h1.82v.72h-1.82v2.32h-.86V11.54h2.94z" fill="#EC1C24"/>
  <rect x="1" y="3" width="22" height="18" rx="2" stroke="#EC1C24" stroke-width="1.5" fill="none"/>
</svg>