<svg width="24" height="24" viewBox="0 0 72 66" fill="none" xmlns="http://www.w3.org/2000/svg">
  <path d="M29.184 0.36c-1.332-2.184-3.48-3.516-5.844-3.636H23.28c-2.376.12-4.524 1.452-5.856 3.636L.36 31.56c-1.38 2.28-1.38 5.076 0 7.356.096.156.204.3.312.444L4.896 33c-.492-.84-.492-1.896 0-2.736L21.96 0.96c.492-.84 1.38-1.356 2.34-1.356.96 0 1.848.516 2.34 1.356l5.076 8.856-4.668 8.148-2.748-4.8L13.68 32.268A16.17 16.17 0 0 0 7.2 44.508c0 2.976.816 5.88 2.364 8.4l4.224-6.372A9.324 9.324 0 0 1 12.48 44.508c0-3.012 1.44-5.832 3.876-7.584L27 31.2l2.748 4.8-5.724 3.984a4.584 4.584 0 0 0-1.944 3.756c0 1.56.756 3.024 2.028 3.912l4.224-6.372 5.724-3.984L46.8 56.4c1.332 2.184 3.48 3.516 5.844 3.636h.06c2.376-.12 4.524-1.452 5.856-3.636l3.18-5.232-4.224-6.372-5.616 9.252c-.492.84-1.38 1.356-2.34 1.356-.96 0-1.848-.516-2.34-1.356L29.184.36z" transform="translate(3 3)" fill="#362D59"/>
</svg>
