<svg width="24" height="24" viewBox="0 0 24 24" fill="none" xmlns="http://www.w3.org/2000/svg">
  <path d="M13.91 2.33a1.96 1.96 0 0 0-3.38 0L8.19 6.6a11.29 11.29 0 0 1 5.73 9.78h-2.06A9.23 9.23 0 0 0 7.18 8.6L4.43 13.37A6.15 6.15 0 0 1 7.8 18.38H3.52a1.06 1.06 0 0 1 0-2.12 4.07 4.07 0 0 0-.72-2.27L1.15 17.1a1.96 1.96 0 0 0 .72 2.68c.3.17.63.26.97.26h6.91a8.21 8.21 0 0 0-4.2-7.2l.97-1.68a10.27 10.27 0 0 1 4.95 8.88h4.12c0-5.54-3.07-10.56-7.98-13.1l1.67-2.9a14.4 14.4 0 0 1 8.38 13.02l.01 2.98h2.06V18.1a16.5 16.5 0 0 0-8.56-14.47l1.6-2.76 1.04 1.47z" fill="#362D59"/>
</svg>
