<svg width="24" height="24" viewBox="0 0 24 24" fill="none" xmlns="http://www.w3.org/2000/svg">
  <path d="M5.042 15.166a2.528 2.528 0 0 1-2.52 2.521A2.528 2.528 0 0 1 0 15.166a2.528 2.528 0 0 1 2.522-2.52h2.52v2.52zM6.313 15.166a2.528 2.528 0 0 1 2.521-2.52 2.528 2.528 0 0 1 2.521 2.52v6.313A2.528 2.528 0 0 1 8.834 24a2.528 2.528 0 0 1-2.521-2.521v-6.313z" fill="#E01E5A"/>
  <path d="M8.834 5.042a2.528 2.528 0 0 1-2.521-2.52A2.528 2.528 0 0 1 8.834 0a2.528 2.528 0 0 1 2.521 2.522v2.52H8.834zM8.834 6.313a2.528 2.528 0 0 1 2.521 2.521 2.528 2.528 0 0 1-2.521 2.521H2.522A2.528 2.528 0 0 1 0 8.834a2.528 2.528 0 0 1 2.522-2.521h6.312z" fill="#36C5F0"/>
  <path d="M18.958 8.834a2.528 2.528 0 0 1 2.52-2.521A2.528 2.528 0 0 1 24 8.834a2.528 2.528 0 0 1-2.522 2.521h-2.52V8.834zM17.688 8.834a2.528 2.528 0 0 1-2.522 2.521 2.528 2.528 0 0 1-2.52-2.521V2.522A2.528 2.528 0 0 1 15.166 0a2.528 2.528 0 0 1 2.522 2.522v6.312z" fill="#2EB67D"/>
  <path d="M15.166 18.958a2.528 2.528 0 0 1 2.522 2.52A2.528 2.528 0 0 1 15.166 24a2.528 2.528 0 0 1-2.52-2.522v-2.52h2.52zM15.166 17.688a2.528 2.528 0 0 1-2.52-2.522 2.528 2.528 0 0 1 2.52-2.52h6.312A2.528 2.528 0 0 1 24 15.166a2.528 2.528 0 0 1-2.522 2.522h-6.312z" fill="#ECB22E"/>
</svg>
