<svg width="24" height="24" viewBox="0 0 24 24" fill="none" xmlns="http://www.w3.org/2000/svg">
  <rect width="24" height="24" rx="4" fill="#635BFF"/>
  <path d="M10.865 10.252c0-.652.535-.903 1.42-.903 1.27 0 2.873.385 4.143 1.07V7.394A11.09 11.09 0 0012.285 6.8c-3.39 0-5.645 1.77-5.645 4.724 0 4.607 6.34 3.87 6.34 5.858 0 .692-.602.916-1.445.916-1.25 0-2.848-.516-4.114-1.21v3.113c1.4.601 2.816.857 4.114.857 3.474 0 5.863-1.718 5.863-4.717-.017-4.973-6.533-4.087-6.533-6.289z" fill="white"/>
</svg>
