<svg viewBox="0 0 32 32" fill="none" xmlns="http://www.w3.org/2000/svg">
  <rect width="32" height="32" rx="6" fill="#5865F2"/>
  <path d="M22.2 10.8C20.8 10.2 19.3 9.7 17.7 9.5C17.5 9.9 17.3 10.3 17.1 10.7C15.4 10.5 13.7 10.5 12 10.7C11.8 10.3 11.6 9.9 11.4 9.5C9.8 9.7 8.3 10.2 6.9 10.8C4.1 15 3.3 19.1 3.7 23.1C5.5 24.4 7.2 25.2 8.9 25.8C9.4 25.1 9.8 24.4 10.2 23.6C9.4 23.3 8.7 22.9 8 22.5C8.2 22.4 8.4 22.2 8.5 22.1C11.9 23.7 15.6 23.7 18.9 22.1C19.1 22.2 19.3 22.4 19.5 22.5C18.8 22.9 18.1 23.3 17.3 23.6C17.7 24.4 18.1 25.1 18.6 25.8C20.3 25.2 22 24.4 23.8 23.1C24.3 18.4 23 14.4 20.6 10.8L22.2 10.8ZM12 20.6C11 20.6 10.2 19.7 10.2 18.6C10.2 17.5 11 16.6 12 16.6C13 16.6 13.8 17.5 13.8 18.6C13.8 19.7 13 20.6 12 20.6ZM19.1 20.6C18.1 20.6 17.3 19.7 17.3 18.6C17.3 17.5 18.1 16.6 19.1 16.6C20.1 16.6 20.9 17.5 20.9 18.6C20.9 19.7 20.1 20.6 19.1 20.6Z" fill="white"/>
</svg>