<svg viewBox="0 0 32 32" fill="none" xmlns="http://www.w3.org/2000/svg">
  <path d="M8 18C6.9 18 6 18.9 6 20C6 21.1 6.9 22 8 22H12V18H8Z" fill="#E01E5A"/>
  <path d="M14 18V26C14 27.1 14.9 28 16 28C17.1 28 18 27.1 18 26V18H14Z" fill="#E01E5A"/>
  <path d="M16 6C14.9 6 14 6.9 14 8C14 9.1 14.9 10 16 10H20V6H16Z" fill="#36C5F0"/>
  <path d="M22 10H26C27.1 10 28 9.1 28 8C28 6.9 27.1 6 26 6C24.9 6 24 6.9 24 8V10H22Z" fill="#36C5F0"/>
  <path d="M24 14C24 12.9 24.9 12 26 12C27.1 12 28 12.9 28 14C28 15.1 27.1 16 26 16H22V14H24Z" fill="#2EB67D"/>
  <path d="M14 14V22C14 23.1 14.9 24 16 24H18V14H14Z" fill="#2EB67D"/>
  <path d="M8 12C6.9 12 6 12.9 6 14C6 15.1 6.9 16 8 16H10V12H8Z" fill="#ECB22E"/>
  <path d="M10 20V24C10 25.1 10.9 26 12 26C13.1 26 14 25.1 14 24V20H10Z" fill="#ECB22E"/>
</svg>