<svg viewBox="0 0 32 32" fill="none" xmlns="http://www.w3.org/2000/svg">
  <circle cx="16" cy="16" r="14" fill="#1DB954"/>
  <path d="M22.5 21.5C22.3 21.8 21.9 21.9 21.6 21.7C18.4 19.8 14.4 19.4 9.9 20.5C9.5 20.6 9.2 20.3 9.1 20C9 19.6 9.3 19.3 9.6 19.2C14.5 18 18.9 18.4 22.4 20.5C22.7 20.7 22.8 21.1 22.5 21.5ZM24 18C23.7 18.4 23.2 18.5 22.8 18.2C19.1 16 13.6 15.3 9.4 16.6C8.9 16.8 8.4 16.5 8.2 16C8 15.5 8.3 15 8.8 14.8C13.5 13.4 19.5 14.1 23.7 16.6C24.1 16.9 24.2 17.5 24 18ZM24.2 14.3C19.7 11.7 12.6 11.4 8.4 12.7C7.8 12.9 7.2 12.5 7 11.9C6.8 11.3 7.2 10.7 7.8 10.5C12.6 9 20.5 9.4 25.6 12.3C26.1 12.6 26.3 13.3 26 13.8C25.7 14.3 25 14.5 24.5 14.2L24.2 14.3Z" fill="white"/>
</svg>