<svg viewBox="0 0 32 32" fill="none" xmlns="http://www.w3.org/2000/svg">
  <rect width="32" height="32" rx="6" fill="black"/>
  <path d="M22.5 13.5V10C22.5 10 20 10 19 8H15.5V20C15.5 21.4 14.4 22.5 13 22.5C11.6 22.5 10.5 21.4 10.5 20C10.5 18.6 11.6 17.5 13 17.5V14C9.7 14 7 16.7 7 20C7 23.3 9.7 26 13 26C16.3 26 19 23.3 19 20V14.5C20 15.5 22.5 16 22.5 16V13.5Z" fill="white"/>
  <path d="M22.5 13.5V10C22.5 10 20 10 19 8H15.5V20C15.5 21.4 14.4 22.5 13 22.5C11.6 22.5 10.5 21.4 10.5 20C10.5 18.6 11.6 17.5 13 17.5V14C9.7 14 7 16.7 7 20C7 23.3 9.7 26 13 26C16.3 26 19 23.3 19 20V14.5C20 15.5 22.5 16 22.5 16V13.5Z" fill="#25F4EE" transform="translate(-1, -1)"/>
  <path d="M22.5 13.5V10C22.5 10 20 10 19 8H15.5V20C15.5 21.4 14.4 22.5 13 22.5C11.6 22.5 10.5 21.4 10.5 20C10.5 18.6 11.6 17.5 13 17.5V14C9.7 14 7 16.7 7 20C7 23.3 9.7 26 13 26C16.3 26 19 23.3 19 20V14.5C20 15.5 22.5 16 22.5 16V13.5Z" fill="#FE2C55" transform="translate(1, 1)"/>
</svg>